<?xml version="1.0" encoding="UTF-8" standalone="no"?>
<!-- Created with Inkscape (http://www.inkscape.org/) -->
<svg
   xmlns:dc="http://purl.org/dc/elements/1.1/"
   xmlns:cc="http://creativecommons.org/ns#"
   xmlns:rdf="http://www.w3.org/1999/02/22-rdf-syntax-ns#"
   xmlns:svg="http://www.w3.org/2000/svg"
   xmlns="http://www.w3.org/2000/svg"
   xmlns:sodipodi="http://sodipodi.sourceforge.net/DTD/sodipodi-0.dtd"
   xmlns:inkscape="http://www.inkscape.org/namespaces/inkscape"
   width="111"
   height="111"
   id="svg16802"
   sodipodi:version="0.32"
   inkscape:version="0.46"
   sodipodi:docname="acorn.svg"
   inkscape:output_extension="org.inkscape.output.svg.inkscape"
   version="1.0">
  <defs
     id="defs16804">
    <inkscape:perspective
       sodipodi:type="inkscape:persp3d"
       inkscape:vp_x="0 : 526.18109 : 1"
       inkscape:vp_y="0 : 1000 : 0"
       inkscape:vp_z="744.09448 : 526.18109 : 1"
       inkscape:persp3d-origin="372.04724 : 350.78739 : 1"
       id="perspective16810" />
    <inkscape:perspective
       id="perspective16819"
       inkscape:persp3d-origin="372.04724 : 350.78739 : 1"
       inkscape:vp_z="744.09448 : 526.18109 : 1"
       inkscape:vp_y="0 : 1000 : 0"
       inkscape:vp_x="0 : 526.18109 : 1"
       sodipodi:type="inkscape:persp3d" />
  </defs>
  <sodipodi:namedview
     id="base"
     pagecolor="#ffffff"
     bordercolor="#666666"
     borderopacity="1.0"
     gridtolerance="10000"
     guidetolerance="10"
     objecttolerance="10"
     inkscape:pageopacity="0.0"
     inkscape:pageshadow="2"
     inkscape:zoom="3.959798"
     inkscape:cx="76.862927"
     inkscape:cy="37.571926"
     inkscape:document-units="px"
     inkscape:current-layer="layer1"
     showgrid="false"
     inkscape:window-width="1440"
     inkscape:window-height="850"
     inkscape:window-x="0"
     inkscape:window-y="0" />
  <metadata
     id="metadata16807">
    <rdf:RDF>
      <cc:Work
         rdf:about="">
        <dc:format>image/svg+xml</dc:format>
        <dc:type
           rdf:resource="http://purl.org/dc/dcmitype/StillImage" />
      </cc:Work>
    </rdf:RDF>
  </metadata>
  <g
     inkscape:label="Layer 1"
     inkscape:groupmode="layer"
     id="layer1"
     transform="translate(-221.17787,-149.24997)">
    <g
       id="g31320"
       transform="matrix(1,0,0,0.9360731,12.626908,13.329166)">
      <path
         style="fill:#cdc5a8"
         d="M 266.07879,258.54109 C 252.64869,254.98436 243.77152,244.4263 236.76776,223.68005 C 236.12885,221.78749 234.36251,220.09564 231.11883,218.26934 C 223.22498,213.82486 219.94728,205.625 221.59108,194.43361 C 222.98911,184.91538 226.94912,178.50759 237.49301,168.70233 L 240.43004,165.97104 L 238.66138,164.16092 C 234.3819,159.78111 233.9532,155.45927 237.40781,151.52353 C 239.2872,149.3824 240.30701,148.90684 241.82276,149.46475 C 245.38976,150.77766 250.48363,154.11167 252.71223,156.59206 L 254.90312,159.03047 L 263.64449,156.88372 C 275.23885,154.03632 283.54931,154.5692 290.31673,158.59401 C 296.68281,162.38012 299.53465,167.32054 300.7518,176.67127 C 301.64302,183.51808 301.59396,183.94526 299.29626,189.34554 L 296.91841,194.93419 L 298.31746,201.82698 C 299.09028,205.6345 299.71651,212.75622 299.71651,217.7376 C 299.71651,233.61579 295.63012,244.31099 285.71956,254.37147 C 280.425,259.74612 280.07958,259.93078 275.47214,259.8498 C 272.84965,259.80371 268.62265,259.21479 266.07879,258.54109 z"
         id="path16839" />
      <path
         style="fill:#aca795"
         d="M 268.63751,256.79509 C 256.00241,254.30428 244.92224,242.93911 239.52485,226.93361 C 236.85931,219.02918 236.32364,218.21821 232.5195,216.32811 C 220.93601,210.57279 218.88927,192.29827 228.39057,179.46263 C 230.25598,176.94257 233.53878,173.4751 235.68566,171.75714 C 237.83255,170.03918 240.45095,167.71101 241.50433,166.58345 L 243.41957,164.53333 L 240.3004,161.23347 C 238.58485,159.41855 236.87154,157.93361 236.49304,157.93361 C 236.11454,157.93361 235.80485,157.11205 235.80485,156.10792 C 235.80485,153.96955 239.15848,149.9238 240.90471,149.95557 C 243.09641,149.99544 248.89803,153.61685 252.06137,156.91963 L 255.17332,160.16876 L 260.83629,158.45032 C 273.86656,154.49627 286.57919,155.52713 293.00049,161.0585 C 299.86873,166.97486 302.11796,180.02001 297.65314,188.04291 L 295.36852,192.14818 L 297.12204,200.32329 C 301.64971,221.43175 297.73571,238.93573 285.69893,251.40907 C 278.97985,258.37185 278.0788,258.6563 268.63751,256.79509 z M 272.38587,248.93361 C 272.10001,248.38361 271.10929,247.93361 270.18425,247.93361 C 269.25921,247.93361 268.73624,248.38361 269.02209,248.93361 C 269.30795,249.48361 270.29867,249.93361 271.22371,249.93361 C 272.14874,249.93361 272.67172,249.48361 272.38587,248.93361 z M 280.37482,247.91891 C 280.37482,247.36083 281.53854,246.06266 282.96087,245.03409 C 285.90483,242.90513 288.3971,239.13904 287.53707,238.11894 C 287.21929,237.74201 286.0135,238.74033 284.85754,240.33742 L 282.7558,243.24124 L 283.33023,238.68616 C 283.82105,234.79409 283.63579,233.81136 282.05743,231.93447 C 278.55062,227.76437 270.78891,226.58289 268.42927,229.86 C 267.12274,231.67454 267.19733,232.04183 269.71403,236.18581 C 276.07607,246.6615 280.37482,251.39263 280.37482,247.91891 z M 267.76068,247.52139 C 267.76068,247.29467 265.26791,244.99392 262.2212,242.40862 C 258.60758,239.34227 256.39551,238.04841 255.85846,238.68703 C 255.07872,239.61425 259.72618,243.53598 265.23785,246.60177 C 267.83874,248.04847 267.76068,248.02002 267.76068,247.52139 z M 292.14802,205.40149 C 292.14802,200.52343 290.06968,195.06469 287.83879,194.08333 C 284.55283,192.63787 265.92552,196.98504 259.98196,200.58446 C 257.66924,201.98505 257.07854,204.27745 258.39451,206.74505 C 258.96626,207.81714 260.37485,207.74785 266.11239,206.36538 C 274.32029,204.38768 285.24818,204.84518 288.19226,207.28975 C 291.16262,209.75615 292.14802,209.28578 292.14802,205.40149 z"
         id="path16837" />
      <path
         style="fill:#a69a6b"
         d="M 267.57607,254.90325 C 255.05195,252.39415 245.6013,242.03816 239.26182,223.8766 C 236.77282,216.74602 236.39547,216.20478 232.57473,214.28525 C 226.79144,211.37974 223.80593,206.37095 223.34548,198.80135 C 222.6669,187.64561 227.19208,179.21258 238.90042,169.8135 C 242.2218,167.1472 245.19166,164.48012 245.50011,163.88664 C 246.38783,162.1786 243.41686,159.03395 240.24744,158.3269 C 238.6552,157.97169 237.14756,157.04613 236.89714,156.2701 C 236.30077,154.42207 238.99219,150.93361 241.01435,150.93361 C 243.17926,150.93361 249.11165,154.61294 252.33289,157.9535 L 254.98536,160.70423 L 261.58326,158.79272 C 269.43918,156.51675 281.7735,156.15307 287.07277,158.04115 C 297.91555,161.90434 303.06741,177.53178 296.74679,187.38592 L 294.44207,190.97906 L 296.44859,199.70634 C 301.32625,220.92164 297.53498,237.52364 284.87862,250.37147 C 279.84457,255.48166 279.08026,255.92405 275.47214,255.81599 C 273.31217,255.7513 269.75894,255.34057 267.57607,254.90325 z M 274.28273,249.68361 C 274.09263,248.99611 271.91003,247.55993 269.43252,246.49211 C 266.31908,245.15019 263.1295,242.53314 259.10443,238.01792 L 253.28091,231.48523 L 251.70309,233.80228 C 250.55591,235.48695 250.3427,236.60241 250.92189,237.88933 C 252.29862,240.94831 257.7941,246.09067 259.06613,245.51022 C 259.73351,245.20569 260.081,245.33855 259.83832,245.80548 C 259.4557,246.54166 262.93044,248.74057 266.91974,250.2868 C 269.66704,251.35164 274.63151,250.94494 274.28273,249.68361 z M 283.86545,245.80731 C 289.90953,239.7898 290.70843,237.36864 291.00283,224.17678 C 291.141,217.98552 291.64441,212.0526 292.12151,210.99252 C 294.35423,206.03158 292.02035,195.61566 288.17202,193.36626 C 286.12088,192.16734 282.63865,192.69115 269.86304,196.12038 C 262.30678,198.14863 259.75833,199.44486 252.62371,204.88887 C 250.54237,206.47701 248.05936,207.81178 247.10591,207.85501 C 245.08662,207.94657 241.69145,211.39962 241.69145,213.36178 C 241.69145,214.10442 242.38749,215.7342 243.23821,216.98351 L 244.78498,219.25497 L 246.60199,217.09429 C 247.68666,215.80446 248.41899,213.67753 248.41899,211.81711 L 248.41899,208.70062 L 254.09536,209.13694 C 257.69151,209.41336 261.15853,209.04617 263.55597,208.13497 C 265.6964,207.32146 270.99311,206.65281 275.74964,206.59567 C 285.98848,206.47266 289.07236,207.827 289.46372,212.6184 C 289.81958,216.97536 288.32114,223.07423 286.24313,225.72658 C 284.09089,228.47369 283.16493,228.51036 282.46189,225.87633 C 282.15988,224.74482 280.90451,223.35434 279.67216,222.78638 C 276.49273,221.32104 267.51153,221.32245 267.10062,222.78835 C 266.91854,223.43788 266.17613,224.675 265.45082,225.5375 C 264.25312,226.96174 264.29035,227.48789 265.85656,231.26965 C 267.65209,235.60515 277.7325,249.91906 278.9967,249.92831 C 279.39503,249.93123 281.58597,248.07677 283.86545,245.80731 z"
         id="path16835" />
      <path
         style="fill:#867654"
         d="M 268.91016,254.88021 C 257.49422,253.10992 246.61804,242.63486 241.20339,228.19529 C 236.72451,216.25117 236.39818,215.66061 233.70249,214.6212 C 227.5049,212.23151 223.19071,205.12101 223.19071,197.29602 C 223.19071,186.90461 227.81806,179.00926 239.27927,169.84514 C 243.38108,166.56543 246.73711,163.51337 246.73711,163.0628 C 246.73711,161.4426 243.72644,159.09833 240.2198,157.98809 C 238.2541,157.36573 236.64579,156.26861 236.64579,155.55005 C 236.64579,153.75721 239.40715,150.93361 241.16046,150.93361 C 243.25424,150.93361 248.76621,154.47922 252.1264,157.98753 L 255.03963,161.02917 L 259.9285,159.4336 C 262.61738,158.55603 268.61578,157.57479 273.25826,157.25305 C 282.61414,156.60467 289.19003,158.16553 293.30038,162.01026 C 296.64343,165.13727 298.99357,171.3665 299.11268,177.41619 C 299.21202,182.46159 298.89463,183.42455 295.12185,189.52444 C 294.5799,190.40066 294.92815,193.63088 296.17303,199.2751 C 298.38755,209.31561 298.63563,222.16402 296.75998,229.67463 C 294.9891,236.76571 290.14905,244.77669 283.98567,250.81796 C 278.38962,256.30313 278.27876,256.33301 268.91016,254.88021 z M 274.89201,249.9657 C 275.16869,249.43336 272.56644,247.40162 269.10924,245.45073 C 264.5516,242.87887 261.76899,240.4703 258.98818,236.69017 C 255.03867,231.32133 249.25994,219.36232 249.25994,216.5577 C 249.25994,214.74362 255.60583,210.54548 257.22864,211.28599 C 257.82158,211.55656 259.09248,214.85047 260.05284,218.60578 C 261.01321,222.36109 263.23495,228.20574 264.99005,231.59389 C 268.4418,238.25735 277.17508,249.93361 278.70727,249.93361 C 280.67804,249.93361 287.15892,243.69621 289.6353,239.41613 C 293.99328,231.884 294.94523,227.58444 294.94523,215.43361 C 294.94523,204.46707 293.90849,198.77755 290.92275,193.35886 C 289.78278,191.28996 289.59477,191.27553 280.65322,192.57023 C 269.27089,194.21835 259.75725,197.14662 257.38461,199.73224 C 255.23939,202.07002 248.12606,206.37027 244.85562,207.30643 C 243.58955,207.66884 241.96031,209.04222 241.2351,210.35838 C 240.0112,212.57959 240.07534,213.31436 242.12857,220.59251 C 244.75142,229.8898 246.64765,233.77551 251.73526,240.27827 C 255.35224,244.90134 259.83416,248.34206 264.39691,249.99848 C 267.46565,251.11253 274.30708,251.09117 274.89201,249.9657 z M 237.54181,180.33842 C 239.73066,176.55531 239.92879,175.80546 238.66296,176.09534 C 236.05128,176.69344 232.21914,184.93361 234.55267,184.93361 C 234.73442,184.93361 236.07953,182.86577 237.54181,180.33842 z M 248.41899,172.93361 C 248.41899,172.38361 248.04057,171.93361 247.57805,171.93361 C 247.11553,171.93361 246.73711,172.38361 246.73711,172.93361 C 246.73711,173.48361 247.11553,173.93361 247.57805,173.93361 C 248.04057,173.93361 248.41899,173.48361 248.41899,172.93361 z"
         id="path16833" />
      <path
         style="fill:#72694c"
         d="M 266.37737,253.89412 C 256.58364,251.58916 247.14069,241.98631 242.10068,229.20636 C 236.33529,214.58705 236.44366,214.77301 232.86155,213.35188 C 223.10917,209.48282 220.507,194.40008 227.58678,182.77819 C 230.90034,177.33877 232.13513,176.07522 240.66978,169.39042 C 246.88543,164.522 247.54108,163.72 246.74735,161.95636 C 245.64202,159.5004 243.82084,158.31167 239.78385,157.41108 C 238.05792,157.02605 236.64579,156.41124 236.64579,156.04482 C 236.64579,154.53423 239.35167,150.93361 240.48688,150.93361 C 242.71564,150.93361 249.32577,155.16574 251.92548,158.25717 C 254.48285,161.29824 254.49085,161.30022 259.23105,160.06944 C 269.37997,157.43428 274.28037,156.7669 279.71741,157.27939 C 292.12751,158.44915 298.87557,165.94058 298.87557,178.54804 C 298.87557,181.94914 298.32261,183.61291 296.26699,186.39696 L 293.65841,189.92991 L 295.8524,200.18176 C 298.34497,211.8288 298.5893,218.98108 296.77721,227.25401 C 294.82169,236.1818 292.40081,240.85148 285.93414,248.16938 L 279.95673,254.93361 L 274.90989,254.82404 C 272.13412,254.76378 268.29449,254.34532 266.37737,253.89412 z M 274.93356,250.88576 C 275.2331,250.30944 276.10688,249.91126 276.87531,250.00091 C 280.15805,250.38391 281.37788,249.64959 286.10615,244.44407 C 296.30947,233.21088 298.88318,215.24545 292.96656,196.5558 L 291.10581,190.67799 L 284.2343,191.341 C 275.71355,192.16313 263.26702,195.14902 259.35125,197.31037 C 257.73244,198.2039 254.32662,200.49214 251.78277,202.39535 C 249.23891,204.29857 246.64836,205.87327 246.02598,205.89468 C 245.4036,205.91609 243.7495,206.90303 242.3502,208.08788 C 239.9467,210.12304 239.83369,210.51998 240.3065,215.26717 C 241.35218,225.76624 248.55768,239.5109 256.36438,245.89797 C 262.48578,250.90619 273.39938,253.83765 274.93356,250.88576 z M 268.18115,244.02864 C 263.69724,241.54786 258.53177,234.97842 254.35888,226.44948 C 250.38135,218.3198 250.20284,216.73942 253.0146,214.54862 C 256.32545,211.96894 257.15415,212.58923 258.80352,218.88171 C 260.78148,226.42772 265.40777,235.74304 270.02044,241.46761 C 273.90981,246.29454 273.44542,246.94116 268.18115,244.02864 z M 236.51902,195.93102 C 235.46287,192.32827 236.5189,185.9514 238.33928,184.93932 C 239.02668,184.55715 240.48516,183.68757 241.58036,183.00693 C 243.00859,182.11932 243.82893,182.07537 244.48162,182.85151 C 245.95268,184.60081 248.08715,184.12271 253.04418,180.93361 C 255.60888,179.28361 258.40926,177.93361 259.26723,177.93361 C 260.12521,177.93361 261.28613,177.27604 261.84705,176.47234 C 262.40797,175.66863 263.68273,174.70315 264.67986,174.32682 C 265.67698,173.95049 266.92757,172.93555 267.45894,172.07141 C 268.10072,171.02771 269.58395,170.55521 271.87711,170.66395 C 274.74888,170.80013 275.32917,170.51027 275.32917,168.93964 C 275.32917,167.90124 275.70759,166.77353 276.17011,166.43361 C 277.99264,165.09418 276.80401,164.02429 272.24226,162.89816 C 268.02149,161.8562 266.64435,161.97755 260.25882,163.95411 C 242.99771,169.29706 229.91825,180.06929 229.91825,188.94259 C 229.91825,191.40294 234.74527,198.93361 236.32232,198.93361 C 237.15392,198.93361 237.19873,198.24961 236.51902,195.93102 z"
         id="path16831" />
      <path
         style="fill:#64522b"
         d="M 274.37454,252.39447 C 275.93083,251.591 278.15309,250.93361 279.31292,250.93361 C 281.09205,250.93361 281.25805,251.1681 280.37482,252.43361 C 279.71118,253.38451 277.90338,253.91928 275.43643,253.89447 L 271.54492,253.85533 L 274.37454,252.39447 z M 258.75115,249.50022 C 249.65089,243.31258 244.88849,236.32637 240.05921,222.08007 C 237.47607,214.45985 237.10645,213.88893 234.14137,212.9395 C 225.55483,210.19007 221.98582,200.42972 225.31653,188.80574 C 227.23565,182.10813 230.77696,177.6985 240.06917,170.43577 C 247.49253,164.63372 248.35548,163.661 247.58944,161.95891 C 246.42529,159.37225 243.38393,156.93707 241.2941,156.9183 C 240.35635,156.90987 239.02146,156.47469 238.32768,155.95122 C 237.24087,155.1312 237.30717,154.71227 238.80666,152.92473 L 240.54706,150.85001 L 244.41548,152.82184 C 246.5431,153.90634 249.8003,156.42278 251.65371,158.41392 L 255.02352,162.03417 L 259.92045,160.4301 C 266.40331,158.30652 281.46653,157.36994 285.92417,158.81327 C 293.8548,161.3811 298.33926,168.11734 298.41377,177.57423 C 298.45001,182.17345 298.11756,183.23293 295.71124,186.18694 C 293.35696,189.07705 293.04004,190.0436 293.47908,192.99446 L 293.99079,196.43361 L 292.24082,193.18361 C 291.27834,191.39611 290.36663,189.93361 290.2148,189.93361 C 290.06296,189.93361 285.63522,190.60857 280.37537,191.43352 C 266.65192,193.5859 260.64057,195.59156 253.27754,200.47457 C 249.70575,202.84331 246.08274,205.04581 245.22641,205.369 C 244.37009,205.69219 242.6182,207.26144 241.33333,208.85622 C 239.07124,211.66392 239.02735,211.92307 239.9488,217.03226 C 242.25671,229.8291 250.20899,242.99898 259.08588,248.72543 C 261.77569,250.46062 263.59801,251.88688 263.13549,251.89492 C 262.67298,251.90295 260.70002,250.82533 258.75115,249.50022 z M 238.76424,199.68361 C 238.4262,197.89611 237.97597,195.53361 237.76373,194.43361 C 237.45213,192.81867 238.03339,192.19295 240.78281,191.18361 C 242.65555,190.49611 244.76139,189.93361 245.46245,189.93361 C 246.16351,189.93361 246.73711,189.42736 246.73711,188.80861 C 246.73711,188.09908 247.64294,187.89904 249.18988,188.26695 C 250.78955,188.6474 253.47741,187.99525 256.91782,186.39195 C 259.81916,185.03986 262.83175,183.93361 263.61245,183.93361 C 264.39316,183.93361 265.50301,183.25861 266.07879,182.43361 C 266.65458,181.60861 267.8874,180.93361 268.81839,180.93361 C 269.74939,180.93361 271.38789,179.80861 272.45952,178.43361 C 273.53114,177.05861 275.19471,175.93361 276.15635,175.93361 C 277.11799,175.93361 278.1226,175.25861 278.38883,174.43361 C 278.65506,173.60861 279.51788,172.93361 280.30623,172.93361 C 281.82565,172.93361 285.42048,169.4542 285.42048,167.98355 C 285.42048,165.92736 280.13689,161.93361 277.41663,161.93361 C 275.8606,161.93361 274.3531,161.48263 274.06662,160.93144 C 272.83939,158.57014 254.03984,164.22368 244.50921,169.82018 C 237.57839,173.89003 230.70078,181.35591 229.00953,186.64561 C 227.26853,192.09087 229.80528,198.10907 235.38438,201.76936 C 238.50443,203.81633 239.43696,203.24086 238.76424,199.68361 z M 283.31812,248.36156 C 286.48361,245.52252 288.37685,243.3675 290.75047,239.90154 C 292.2216,237.75339 292.7504,237.32936 292.13998,238.78734 C 290.93451,241.66659 283.78125,249.94574 282.53697,249.90181 C 282.04157,249.88431 282.39309,249.1912 283.31812,248.36156 z M 296.51668,219.43361 C 296.49954,217.78361 296.67399,216.98755 296.90434,217.66458 C 297.1347,218.34161 297.14871,219.69161 296.9355,220.66458 C 296.72229,221.63755 296.53382,221.08361 296.51668,219.43361 z M 296.48551,211.93361 C 296.48551,210.55861 296.67639,209.99611 296.90968,210.68361 C 297.14296,211.37111 297.14296,212.49611 296.90968,213.18361 C 296.67639,213.87111 296.48551,213.30861 296.48551,211.93361 z"
         id="path16829" />
      <path
         style="fill:#4e3b11"
         d="M 276.17011,252.93361 C 276.17011,252.38361 276.94929,251.93361 277.90163,251.93361 C 278.85396,251.93361 279.39926,252.38361 279.11341,252.93361 C 278.82755,253.48361 278.04837,253.93361 277.38189,253.93361 C 276.71541,253.93361 276.17011,253.48361 276.17011,252.93361 z M 235.38438,212.62892 C 227.98417,210.01105 224.8653,205.52738 224.88547,197.53573 C 224.89255,194.72956 225.23519,191.8009 225.6469,191.02758 C 226.15951,190.06473 226.36863,190.74674 226.31035,193.19137 C 226.21703,197.10635 229.68293,204.04892 233.03428,206.66015 C 234.75211,207.9986 235.25112,207.94958 238.10529,206.16197 C 240.66233,204.56045 241.23955,203.66641 241.10753,201.5119 C 240.95993,199.10315 241.57137,198.50327 247.41461,195.32408 C 250.97339,193.38781 254.54223,191.38285 255.34536,190.8686 C 256.1485,190.35436 257.50452,189.93361 258.35874,189.93361 C 259.21297,189.93361 260.1825,189.61181 260.51325,189.21849 C 261.14847,188.46313 262.65755,187.94946 277.43152,183.45972 C 288.97203,179.95262 290.77607,178.30258 290.25371,171.73215 C 290.04813,169.14635 290.26778,166.56948 290.74182,166.00578 C 291.33038,165.3059 291.08998,164.27951 289.98375,162.76928 L 288.36378,160.55769 L 291.30708,162.51853 C 294.96057,164.9525 298.03462,171.81513 298.03462,177.53736 C 298.03462,180.74763 297.40059,182.66612 295.30156,185.80714 C 293.54922,188.42937 292.04306,189.75852 291.10424,189.5112 C 289.10173,188.98365 271.85577,191.67169 265.65832,193.47731 C 260.05825,195.1089 245.08867,203.77787 241.46335,207.48875 C 240.18161,208.80076 238.85712,210.69483 238.52005,211.6978 C 238.01396,213.20375 237.46777,213.36594 235.38438,212.62892 z M 247.82991,161.91612 C 246.84865,158.82476 242.66169,155.93361 239.16605,155.93361 C 237.68815,155.93361 237.56249,155.63382 238.32768,153.93361 C 239.45851,151.42097 241.71425,151.39663 245.76393,153.85338 C 248.81945,155.70703 254.30559,161.5861 254.30559,163.00682 C 254.30559,163.68582 251.37101,164.89292 249.65454,164.91995 C 249.17779,164.92746 248.35671,163.57574 247.82991,161.91612 z"
         id="path16827" />
    </g>
  </g>
</svg>
